<svg xmlns="http://www.w3.org/2000/svg" xmlns:xlink="http://www.w3.org/1999/xlink" version="1.1" viewBox="0 0 252 252" width="96px" height="96px"><g fill="none" fill-rule="nonzero" stroke="none" stroke-width="1" stroke-linecap="butt" stroke-linejoin="miter" stroke-miterlimit="10" stroke-dasharray="" stroke-dashoffset="0" font-family="none" font-weight="none" font-size="none" text-anchor="none" style="mix-blend-mode: normal"><path d="M0,252v-252h252v252z" fill="none"/><g fill="#f13564"><g id="surface1"><path d="M207.90821,142.7959c0.51269,-3.6709 1.04589,-7.3418 1.04589,-11.5459c0,-4.2041 -0.5332,-7.875 -1.04589,-11.5459l23.625,-16.79589c2.09179,-1.57911 3.13769,-4.73731 1.55859,-7.36231l-23.0918,-38.8418c-1.5791,-2.625 -4.2041,-3.67089 -6.8291,-2.1123l-26.25,12.0791c-6.2959,-4.7168 -12.5918,-8.38769 -19.9541,-11.5459l-2.625,-28.875c-0.5127,-2.625 -2.625,-4.71679 -5.25,-4.71679h-45.1377c-2.625,0 -5.25,2.09179 -5.25,4.71679l-2.625,28.875c-7.3623,3.15821 -14.17089,6.8291 -19.9541,11.5459l-26.25,-12.0791c-2.625,-1.0459 -5.7832,0 -6.8291,2.1123l-22.5791,38.8418c-1.55859,2.625 -0.5127,5.7832 1.5791,7.36231l23.625,16.79589c-0.51269,3.6709 -1.0459,7.3418 -1.0459,11.5459c0,4.2041 0.53321,7.875 1.0459,11.5459l-24.6709,16.7959c-2.09179,1.5791 -3.1582,4.7373 -1.5791,7.3623l22.5791,38.8418c1.5791,2.625 4.2041,3.6709 6.8291,2.11231l26.25,-12.07911c6.2959,4.7168 12.5918,8.3877 19.95411,11.5459l2.625,28.875c0.51269,2.625 2.625,4.7168 5.25,4.7168h45.13769c2.625,0 5.25,-2.0918 5.25,-4.7168l2.625,-28.875c7.36231,-3.1582 14.1709,-6.8291 19.9541,-11.5459l26.25,12.07911c2.625,1.04589 5.78321,0 6.8291,-2.11231l22.57911,-38.8418c1.55859,-2.625 0.51269,-5.7832 -1.57911,-7.3623zM126,183.75c-28.875,0 -52.5,-23.625 -52.5,-52.5c0,-28.875 23.625,-52.5 52.5,-52.5c28.875,0 52.5,23.625 52.5,52.5c0,28.875 -23.625,52.5 -52.5,52.5z"/><path d="M126,68.25c-34.6582,0 -63,28.3418 -63,63c0,34.65821 28.3418,63 63,63c34.65821,0 63,-28.34179 63,-63c0,-34.6582 -28.34179,-63 -63,-63zM126,157.5c-14.7041,0 -26.25,-11.5459 -26.25,-26.25c0,-14.7041 11.5459,-26.25 26.25,-26.25c14.7041,0 26.25,11.5459 26.25,26.25c0,14.7041 -11.5459,26.25 -26.25,26.25z"/></g></g></g></svg>
